<?xml version="1.0" encoding="utf-8"?>
<!-- Generator: Adobe Illustrator 16.0.0, SVG Export Plug-In . SVG Version: 6.00 Build 0)  -->
<!DOCTYPE svg PUBLIC "-//W3C//DTD SVG 1.1//EN" "http://www.w3.org/Graphics/SVG/1.1/DTD/svg11.dtd">
<svg version="1.1" id="svg2506" xmlns:svg="http://www.w3.org/2000/svg"
	 xmlns="http://www.w3.org/2000/svg" xmlns:xlink="http://www.w3.org/1999/xlink" x="0px" y="0px" width="177.971px"
	 height="160.184px" viewBox="7.796 45.328 177.971 160.184" enable-background="new 7.796 45.328 177.971 160.184"
	 xml:space="preserve">
<g id="layer1" transform="translate(-275.10461,-346.74898)">
	<g id="g8" transform="matrix(1.25,0,0,1.25,282.28236,392.0761)">
		<path id="path10" fill="#FFFFFF" d="M142.813,27.073c-0.492-9.844-4.922-18.869-7.548-24.119l-1.476-2.953l0.164,2.625
			c0.328,3.446,1.148,15.588-2.461,22.479c-4.595,9.353-17.721,8.533-22.152,8.205h-0.327c-8.877-0.619-30.561-1.312-37.41-1.312
			c-9.354,0-19.691,0.82-28.059,1.477c-4.102,0.328-7.547,0.492-10.009,0.656c-0.164,0-0.492,0-0.82,0
			c-11.649,1.148-19.034-2.297-21.987-10.172C8.923,19.034,9.087,9.517,9.087,4.923V1.641L8.103,3.282
			C5.97,7.384,1.867,14.932,0.555,27.401c-0.82,14.933,6.891,20.183,12.634,22.808c6.072,2.953,12.47,3.283,14.44,3.447h0.163
			c0.328,0,0.822,0,1.314,0.164c0.656,0,1.312,0,1.969,0.164c-0.984,0.162-2.461,0.492-3.775,0.656
			c-1.312,0.162-2.625,0.491-3.28,0.656c-1.477,0.164-7.22,1.641-10.502,2.625c-2.625,0.984-5.579,2.297-5.579,2.297l-0.492,0.328
			l0.328,0.492c0,0,0.984,1.312,1.969,2.297c2.134,2.134,7.876,5.742,14.768,4.923c5.579-0.82,8.532-1.97,9.68-2.625
			c0.492,1.148,1.312,3.938,2.133,6.069c2.462,6.236,8.204,18.214,10.337,22.317c1.805,3.281,3.445,6.234,4.594,8.203l0.492,0.656
			c-0.328,1.312-1.312,2.133-1.969,2.791c-0.164,0.163-0.328,0.163-0.492,0.327l-0.164,0.164v0.166
			c0,1.148-0.328,11.486,6.727,19.033l0.165,0.164c3.609,1.312,8.04,2.625,15.423,2.625c7.547,0,13.782-1.641,16.079-2.789v-0.164
			h0.165c4.922-5.744,7.055-14.439,7.22-17.72v-0.164l-0.164-0.164c-0.164-0.164-0.328-0.164-0.492-0.328
			c-0.657-0.822-1.641-1.642-2.133-3.775c0.491-0.984,1.641-3.445,2.625-5.416c0.655-1.147,0.984-2.133,1.312-2.625
			c1.97-4.1,8.039-17.064,10.502-23.136c1.477-3.936,2.297-5.906,2.788-6.561c0.985,0.491,3.938,1.805,9.353,2.297
			c6.892,0.819,13.62-3.939,15.424-6.564c0.328-0.328,0.984-0.984,0.984-0.984l0.327-0.492l-0.491-0.328
			c-0.164,0-0.328,0-1.312-0.492l-7.876-2.461c-0.985-0.492-5.744-1.478-9.189-2.134l-2.625-0.655l0.82-0.166
			C122.796,52.014,144.127,48.24,142.813,27.073z"/>
	</g>
	<g id="g12" transform="matrix(1.25,0,0,1.25,285.56486,399.2551)">
		<path id="path14" fill="#6DA4D6" d="M5.742,0C5.578,5.578,5.578,11.485,6.891,16.736c-1.148-0.984-2.461-2.297-3.609-3.282
			c-1.148,1.15-2.133,2.463-3.281,3.61C1.148,11.157,3.117,5.414,5.742,0z"/>
	</g>
	<g id="g16" transform="matrix(1.25,0,0,1.25,450.67111,398.84485)">
		<path id="path18" fill="#6DA4D6" d="M6.235,14.931l0.328,1.477l-2.791-1.97C2.461,14.931,1.312,15.752,0,16.408
			C0.984,11.157,1.148,5.578,0.82,0C3.281,4.758,4.758,9.845,6.235,14.931z"/>
	</g>
	<g id="g20" transform="matrix(1.25,0,0,1.25,348.94011,482.52698)">
		<path id="path22" fill="#6DA4D6" d="M18.706,0c2.953,4.593,8.532,5.906,13.454,4.593c1.969-0.327,3.775-1.148,5.415-1.804
			c-1.476,4.759-2.625,10.173-2.462,15.588c0,4.757,0.822,9.352,2.134,13.618c-0.655-0.328-1.312-0.821-2.134-1.149
			C24.94,25.76,10.83,25.924,0.82,31.174c0.493-1.64,0.985-3.281,1.314-4.921C3.775,18.541,2.626,10.501,0,3.609
			c5.416,2.297,13.127,2.789,17.557-2.297C18.05,0.984,18.214,0.492,18.706,0z"/>
	</g>
	<g id="g24" transform="matrix(1.25,0,0,1.25,332.73773,487.24323)">
		<path id="path26" fill="#6DA4D6" d="M9.188,0C8.86,2.297,8.204,4.595,5.907,5.415C4.102,5.907,2.297,4.922,1.148,3.61
			C0.656,2.953,0.164,2.297,0,1.477C2.789,3.281,6.563,1.805,9.024,0H9.188z"/>
	</g>
	<g id="g28" transform="matrix(1.25,0,0,1.25,400.62611,487.65323)">
		<path id="path30" fill="#6DA4D6" d="M9.024,0C8.368,1.969,6.727,3.939,4.595,4.267c-1.477,0.327-2.79-0.493-3.773-1.805
			C0.328,1.805,0.164,0.985,0,0.164C2.462,2.133,6.399,1.641,9.024,0z"/>
	</g>
	<g id="g32" transform="matrix(1.25,0,0,1.25,395.08861,489.90948)">
		<path id="path34" fill="#6DA4D6" d="M7.876,3.774c0.984,0.164,2.133,0,3.116-0.328c-2.788,7.056-6.234,13.946-9.844,20.838
			C0,20.839,0.164,17.064,0.492,13.291C0.984,8.696,2.133,4.267,3.445,0C4.266,1.805,5.906,3.446,7.876,3.774z"/>
	</g>
	<g id="g36" transform="matrix(1.25,0,0,1.25,335.19861,489.70448)">
		<path id="path38" fill="#6DA4D6" d="M10.829,24.448C6.563,17.885,3.282,10.994,0,3.938c1.477,0.657,3.774,1.312,5.251,0.164
			C6.727,3.118,7.548,1.641,8.04,0C11.651,7.056,12.471,16.408,10.829,24.448z"/>
	</g>
	<g id="g40" transform="matrix(1.25,0,0,1.25,345.45373,515.34323)">
		<path id="path42" fill="#6DA4D6" d="M43.153,9.516c-0.82,6.071-2.953,11.486-6.891,16.244c-8.86,3.61-21.002,3.938-29.862,0.164
			C1.968,21.002,0.328,14.93,0,8.368C9.517,1.476,24.448,0,35.277,4.921C38.067,6.234,40.692,7.546,43.153,9.516z"/>
	</g>
	<g id="g44" transform="matrix(1.25,0,0,1.25,293.97298,433.50673)">
		<path id="path46" fill="#6DA4D6" stroke="#FFFFFF" stroke-miterlimit="10" d="M121.091,25.597
			c-7.38-2.954-17.062-4.595-25.102-4.759c-0.821-9.189-1.805-14.767-3.611-19.854C88.276,0.657,69.571,0,62.516,0
			c-7.22,0-25.433,1.148-29.699,1.312c-1.641,4.923-3.609,10.993-4.43,20.019c-8.204,0.491-19.362,2.789-26.745,5.577
			C0.492,27.401,0,27.729,0,27.729c1.148,1.313,5.251,6.236,12.963,6.4c2.462,0,7.056-0.328,10.173-1.641
			c0.82-0.492,2.461-1.148,2.461-1.148s0.492,0.984,0.82,1.804c0.82,2.297,1.805,5.578,2.462,7.056
			c1.148,2.133,2.789,3.773,5.742,3.938c2.462,0,4.266-2.134,4.595-2.462c-7.22-0.493-10.173-4.266-10.665-10.173
			c-1.805-0.328-2.298-0.492-2.462-1.314c-0.164-0.984,0.164-1.968,0.821-3.117c0.82-0.984,2.133-2.133,5.578-0.984
			c2.297,0.656,4.102,2.133,5.251,3.281c1.641,1.312,5.907,5.743,8.532,7.384c2.79,1.64,8.041,3.118,11.486-0.328
			c3.446-3.282,3.773-6.072,4.266-7.712c-5.907-0.164-11.322-0.821-16.408-1.477c-1.478-0.164-0.822-1.64,0.328-1.312
			c0,0,9.516,1.312,16.244,1.312c0-0.82,0-2.133,0-3.609c-3.938-0.164-10.502-0.492-16.736-1.806
			c-1.314-0.327-1.148-1.805,0.164-1.476c0.82,0.328,11.157,1.805,16.736,1.805c0-1.312,0-2.954,0-4.595
			c-3.61,0.165-9.024-0.328-16.573-1.477c-1.312-0.164-1.148-1.312,0-1.312c0,0,9.517,1.477,16.573,1.312c0-0.984,0-2.297,0-3.61
			c0-1.312,1.148-1.477,1.148,0c0,0.493,0.164,1.805,0.164,3.61c6.727-0.164,12.798-0.984,15.588-1.477
			c1.641-0.328,1.477,0.984,0.657,1.148c-0.985,0.164-8.861,1.641-16.409,1.805c0,1.312,0.164,3.118,0.164,4.43
			c5.086-0.164,10.83-0.328,15.916-1.476c1.804-0.329,1.968,1.148,0.328,1.312c-4.923,0.821-11.979,1.642-16.245,1.806
			c0,1.148,0,2.625,0.164,3.609c8.041-0.164,15.588-1.312,16.9-1.476c1.313-0.329,1.641,1.148,0.164,1.312
			c-1.312,0.164-10.83,1.477-16.9,1.477c0.656,2.133,0.656,5.087,3.609,7.547c2.954,2.461,7.712,2.297,11.158,0.329
			c2.625-1.477,6.727-6.072,8.204-7.384c1.313-1.149,4.266-3.774,8.204-3.774c3.774,0,3.938,2.133,4.102,2.625
			c0.164,0.657,0.328,1.806-0.492,2.297c-0.656,0.493-1.312,0.329-1.969,0.657c-0.492,3.118-1.476,6.727-4.102,8.697
			c-2.625,1.97-6.891,2.297-6.891,2.297s0.655,0.656,0.82,0.82c0.329,0.328,1.806,1.148,3.775,0.984
			c1.64-0.164,3.773-1.477,4.593-2.462c1.314-1.64,2.462-5.251,3.447-7.547c0.328-0.821,1.148-2.297,1.312-2.954
			c0.821,0.329,1.149,0.493,2.625,1.149c3.118,1.148,7.055,1.64,9.517,1.64c3.937-0.164,8.532-2.625,11.322-5.086
			c0.492-0.493,1.312-1.641,1.312-1.641S121.913,25.761,121.091,25.597z"/>
	</g>
	<g id="g48" transform="matrix(1.25,0,0,1.25,375.80898,524.36573)">
		<path id="path50" fill="#FFFFFF" d="M12.471,3.119c0.655,1.476,0.163,3.116-0.657,4.265C10.173,9.19,7.876,10.01,5.579,9.353
			C4.265,9.026,2.953,8.205,2.133,6.728C1.64,7.876,2.625,8.862,2.461,9.846c-0.164,0.328-0.492,0.328-0.656,0.164
			C0.492,8.205,0,5.579,1.148,3.611C2.625,1.15,5.25,0,8.204,0.328C9.844,0.658,11.65,1.478,12.471,3.119z"/>
	</g>
	<g id="g52" transform="matrix(1.25,0,0,1.25,352.01748,524.77573)">
		<path id="path54" fill="#FFFFFF" d="M11.649,3.775c1.148,1.805,0.656,4.43-0.492,6.071c-0.164,0.328-0.328,0.656-0.656,0.328
			c-0.492-0.492,0.164-0.984,0.164-1.64c0.164-0.493,0.328-0.986,0.164-1.478C9.189,9.19,6.892,10.174,4.43,9.682
			C2.625,9.354,0.985,8.041,0.328,6.236C0,5.087,0.164,3.775,0.821,2.791C2.46,0.658,5.578,0,8.204,0.986
			C9.517,1.314,10.993,2.462,11.649,3.775z"/>
	</g>
	<g id="g56" transform="matrix(1.25,0,0,1.25,353.24798,539.54448)">
		<path id="path58" fill="#FFFFFF" d="M30.356,4.431c-0.166,0.327-0.33,0.327-0.657,0.82c-0.821-0.33-1.805-0.657-2.789-0.985
			C18.705,0.984,8.204,1.969,0.492,5.251C0.328,4.922,0.164,4.758,0,4.431C9.024,0.492,21.33,0,30.356,4.431z"/>
	</g>
	<g id="g60" transform="matrix(1.25,0,0,1.25,353.04286,490.11448)">
		<path id="path62" fill="#FFFFFF" d="M31.996,0.328C30.52,6.892,26.417,14.275,19.689,16.08C14.274,17.557,8.04,16.408,4.43,11.978
			C1.805,8.696,0.492,4.759,0,0.492c0.327-0.164,0.655-0.164,0.984-0.164c0.492,6.071,3.773,12.963,9.845,14.932
			c5.251,1.64,11.649,0,15.423-4.595C28.714,7.548,30.354,3.774,31.174,0C31.503,0,31.667,0,31.996,0.328z"/>
	</g>
	<g id="g112" transform="matrix(1.25,0,0,1.25,283.51286,418.32973)">
		<path id="path114" fill="#6DA4D6" d="M10.009,5.742c3.445,6.728,10.666,9.025,17.885,8.697c4.102,0,8.04-0.492,11.977-0.82v0.328
			c-1.969,5.743-3.445,11.649-4.266,17.72c-10.501,0.328-21.166-0.492-29.042-7.548C1.313,18.869,0,11.486,1.148,4.265
			C2.462,2.789,3.774,1.476,4.923,0C6.727,1.804,9.516,3.281,10.009,5.742z"/>
	</g>
	<g id="g116" transform="matrix(1.25,0,0,1.25,411.08611,418.94498)">
		<path id="path118" fill="#6DA4D6" d="M38.56,2.132c0.327,1.148,0.327,2.133,0.491,3.117c0.492,8.205-2.952,15.588-10.009,19.691
			c-7.548,4.595-16.244,6.234-25.433,6.398c-0.164-0.82-0.328-1.968-0.328-2.789C2.462,23.135,1.477,17.721,0,12.634
			c9.845,0,21.987,2.625,28.551-6.564c0.82-1.312,1.64-2.461,2.461-3.773C32.487,1.64,33.965,0.656,35.277,0
			C36.426,0.492,37.411,1.476,38.56,2.132z"/>
	</g>
	<g id="g120" transform="matrix(1.25,0,0,1.25,402.06111,472.88698)">
		<path id="path122" fill="#6DA4D6" d="M8.204,0c0,3.117-0.984,6.234-3.773,7.712C3.118,8.368,1.642,8.696,0.164,8.696
			C0,8.368,0,8.04,0.164,7.712c2.134,0,4.431-0.822,5.579-2.626c0.821-1.313,1.149-2.953,1.149-4.594C7.22,0.164,7.712,0,8.204,0z"
			/>
	</g>
	<g id="g124" transform="matrix(1.25,0,0,1.25,331.30211,473.29698)">
		<path id="path126" fill="#6DA4D6" d="M8.86,8.04c-0.492,0-0.656,0.164-1.477,0c-3.61,0-7.384-2.954-7.22-7.876
			C0.656,0,1.148,0,1.476,0.164c0,2.789,1.148,6.726,7.22,6.726C9.024,7.547,8.696,7.547,8.86,8.04z"/>
	</g>
</g>
</svg>
