<?xml version="1.0" encoding="utf-8"?>
<!-- Generator: Adobe Illustrator 16.0.0, SVG Export Plug-In . SVG Version: 6.00 Build 0)  -->
<!DOCTYPE svg PUBLIC "-//W3C//DTD SVG 1.1//EN" "http://www.w3.org/Graphics/SVG/1.1/DTD/svg11.dtd">
<svg version="1.1" id="Layer_1" xmlns="http://www.w3.org/2000/svg" xmlns:xlink="http://www.w3.org/1999/xlink" x="0px" y="0px"
	 width="91.824px" height="13.166px" viewBox="0 0 91.824 13.166" enable-background="new 0 0 91.824 13.166" xml:space="preserve">
<g>
	<path fill="#777777" d="M10.521,4.5H8.613L8.35,2.795C8.098,2.543,7.78,2.344,7.396,2.197s-0.836-0.22-1.358-0.22
		c-1.113,0-1.97,0.404-2.571,1.213S2.566,5.054,2.566,6.354v0.448c0,1.301,0.299,2.358,0.896,3.173s1.441,1.222,2.531,1.222
		c0.504,0,0.965-0.073,1.384-0.22s0.743-0.346,0.971-0.598l0.264-1.705h1.907v2.531c-0.516,0.598-1.173,1.074-1.973,1.429
		s-1.695,0.531-2.685,0.531c-1.717,0-3.123-0.595-4.219-1.784S0,8.666,0,6.803V6.372c0-1.857,0.545-3.384,1.635-4.579
		S4.134,0,5.862,0c0.99,0,1.884,0.181,2.681,0.541s1.456,0.836,1.978,1.428V4.5z"/>
	<path fill="#777777" d="M11.698,1.731V0.185h5.3v1.547l-1.371,0.264v3.691h5.221V1.995l-1.371-0.264V0.185h1.371h2.558h1.371v1.547
		l-1.371,0.264v9.185l1.371,0.264v1.538h-5.3v-1.538l1.371-0.264V7.664h-5.221v3.516l1.371,0.264v1.538h-5.3v-1.538l1.362-0.264
		V1.995L11.698,1.731z"/>
	<path fill="#777777" d="M25.761,1.731V0.185h5.3v1.547l-1.371,0.264v9.185l1.371,0.264v1.538h-5.3v-1.538l1.371-0.264V1.995
		L25.761,1.731z"/>
	<path fill="#777777" d="M42.521,4.5h-1.907l-0.264-1.705c-0.252-0.252-0.57-0.451-0.953-0.598c-0.385-0.146-0.837-0.22-1.358-0.22
		c-1.113,0-1.971,0.404-2.571,1.213s-0.9,1.863-0.9,3.164v0.448c0,1.301,0.299,2.358,0.896,3.173s1.441,1.222,2.531,1.222
		c0.504,0,0.965-0.073,1.385-0.22c0.418-0.146,0.742-0.346,0.971-0.598l0.264-1.705h1.907v2.531
		c-0.516,0.598-1.173,1.074-1.974,1.429c-0.799,0.354-1.694,0.531-2.685,0.531c-1.717,0-3.123-0.595-4.219-1.784
		s-1.644-2.716-1.644-4.579V6.372c0-1.857,0.545-3.384,1.635-4.579S36.135,0,37.863,0c0.99,0,1.884,0.181,2.681,0.541
		S42,1.377,42.521,1.969V4.5z"/>
	<path fill="#777777" d="M43.567,11.443l0.914-0.132l3.894-11.127h2.628l3.867,11.127l0.914,0.132v1.538h-4.359v-1.538l0.888-0.158
		L51.75,9.527h-4.148l-0.562,1.758l0.888,0.158v1.538h-4.359V11.443z M48.208,7.638h2.936l-1.441-4.509h-0.053L48.208,7.638z"/>
	<path fill="#777777" d="M66.709,11.558c-0.416,0.41-1.022,0.781-1.819,1.112s-1.805,0.496-3.023,0.496
		c-1.729,0-3.135-0.578-4.219-1.735s-1.626-2.662-1.626-4.514V6.478c0-1.916,0.534-3.475,1.604-4.676
		C58.694,0.601,60.091,0,61.813,0c1.002,0,1.917,0.16,2.746,0.479s1.52,0.751,2.07,1.296v2.575h-1.898l-0.36-1.714
		c-0.234-0.199-0.544-0.358-0.927-0.479c-0.385-0.12-0.825-0.181-1.323-0.181c-1.119,0-1.989,0.413-2.61,1.239
		s-0.932,1.907-0.932,3.243v0.457c0,1.301,0.305,2.34,0.914,3.116s1.488,1.164,2.637,1.164c0.516,0,0.933-0.044,1.252-0.132
		s0.57-0.19,0.752-0.308V8.587l-1.828-0.141V6.645h4.403V11.558z"/>
	<path fill="#777777" d="M79.69,6.68c0,1.875-0.536,3.425-1.608,4.649s-2.476,1.837-4.21,1.837c-1.729,0-3.124-0.612-4.188-1.837
		c-1.062-1.225-1.595-2.774-1.595-4.649V6.486c0-1.863,0.53-3.41,1.591-4.641S72.135,0,73.863,0c1.734,0,3.139,0.615,4.215,1.846
		c1.074,1.23,1.612,2.777,1.612,4.641V6.68z M77.133,6.469c0-1.324-0.275-2.399-0.826-3.226s-1.365-1.239-2.443-1.239
		s-1.883,0.41-2.412,1.23c-0.531,0.82-0.796,1.898-0.796,3.234V6.68c0,1.348,0.269,2.434,0.804,3.257
		c0.537,0.823,1.341,1.234,2.413,1.234c1.084,0,1.898-0.411,2.443-1.234s0.817-1.909,0.817-3.257V6.469z"/>
</g>
<g>
	<path fill="#777777" d="M84.942,11.49l2.162-0.264V2.56h-2.188V1.092l4.746-0.861v10.995l2.162,0.264v1.538h-6.882V11.49z"/>
</g>
</svg>
